# xmcd
#
# Track frame offsets:
#	150
#	17208
#	31181
#	44801
#	56956
#	69627
#	83280
#	96003
#	109102
#	122766
#	136069
#	163900
#
# Disc length: 2319 seconds
#
# Revision: 1
# Processed by: cddbd v1.4PL0 Copyright (c) Steve Scherf et al.
# Submitted via: audiograbber 1.81.03
#
DISCID=a0090d0c
DTITLE=B.B. King - Classic Masters
DYEAR=2002
DGENRE=Blues
TTITLE0=Three O'Clock Blues
TTITLE1=You Know I Love You
TTITLE2=Woke Up This Morning (My Baby She Was Gone)
TTITLE3=Please Hurry Home
TTITLE4=Please Love Me
TTITLE5=You Upset Me Baby
TTITLE6=Every Day I Have The Blues
TTITLE7=Bad Luck
TTITLE8=Sweet Little Angel
TTITLE9=On My Word Of Honor
TTITLE10=Sweet Sixteen, parts 1 and 2
TTITLE11=Peace of Mind
EXTD=
EXTT0=
EXTT1=
EXTT2=
EXTT3=
EXTT4=
EXTT5=
EXTT6=
EXTT7=
EXTT8=
EXTT9=
EXTT10=
EXTT11=
PLAYORDER=
